<?xml version="1.0" encoding="UTF-8" standalone="no"?>
<!-- Created with Inkscape (http://www.inkscape.org/) -->

<svg
   xmlns:dc="http://purl.org/dc/elements/1.1/"
   xmlns:cc="http://creativecommons.org/ns#"
   xmlns:rdf="http://www.w3.org/1999/02/22-rdf-syntax-ns#"
   xmlns:svg="http://www.w3.org/2000/svg"
   xmlns="http://www.w3.org/2000/svg"
   xmlns:sodipodi="http://sodipodi.sourceforge.net/DTD/sodipodi-0.dtd"
   xmlns:inkscape="http://www.inkscape.org/namespaces/inkscape"
   width="183.90114"
   height="83.133789"
   id="svg2"
   version="1.1"
   inkscape:version="0.91 r13725"
   sodipodi:docname="oveele.svg">
  <defs
     id="defs4" />
  <sodipodi:namedview
     id="base"
     pagecolor="#ffffff"
     bordercolor="#666666"
     borderopacity="1.0"
     inkscape:pageopacity="0.0"
     inkscape:pageshadow="2"
     inkscape:zoom="1.979899"
     inkscape:cx="10.311209"
     inkscape:cy="28.477317"
     inkscape:document-units="px"
     inkscape:current-layer="layer1"
     showgrid="false"
     inkscape:window-width="1920"
     inkscape:window-height="1018"
     inkscape:window-x="-8"
     inkscape:window-y="-8"
     inkscape:window-maximized="1"
     fit-margin-top="0"
     fit-margin-left="0"
     fit-margin-right="0"
     fit-margin-bottom="0" />
  <metadata
     id="metadata7">
    <rdf:RDF>
      <cc:Work
         rdf:about="">
        <dc:format>image/svg+xml</dc:format>
        <dc:type
           rdf:resource="http://purl.org/dc/dcmitype/StillImage" />
        <dc:title></dc:title>
      </cc:Work>
    </rdf:RDF>
  </metadata>
  <g
     inkscape:label="Layer 1"
     inkscape:groupmode="layer"
     id="layer1"
     transform="translate(-67.436753,-389.17556)">
    <flowRoot
       xml:space="preserve"
       id="flowRoot4288"
       style="font-style:normal;font-variant:normal;font-weight:normal;font-stretch:normal;font-size:24px;line-height:125%;font-family:Arial;-inkscape-font-specification:Arial;text-align:start;letter-spacing:0px;word-spacing:0px;writing-mode:lr-tb;text-anchor:start;fill:#000000;fill-opacity:1;stroke:none"
       transform="matrix(0.49494091,0,0,0.49494091,10.835094,318.07947)"><flowRegion
         id="flowRegion4290"><rect
           id="rect4292"
           width="949.5434"
           height="608.11182"
           x="-94.954338"
           y="7.8644514" /></flowRegion><flowPara
         id="flowPara4294" /></flowRoot>    <g
       id="g3043"
       transform="matrix(0.29958285,0,0,-0.29915948,-4.8610509,637.34442)" />
    <g
       id="g3047"
       transform="matrix(0.29958285,0,0,-0.29915948,-4.8610509,637.34442)" />
    <g
       id="g3145"
       transform="matrix(0.29958285,0,0,-0.29915948,-4.8610509,637.34442)" />
    <g
       id="g3243"
       transform="matrix(0.29958285,0,0,-0.29915948,-4.8610509,637.34442)" />
    <g
       id="g4895"
       transform="matrix(0.29958285,0,0,-0.29915948,-4.8610509,637.34442)" />
    <g
       id="g6551"
       transform="matrix(0.29958285,0,0,-0.29915948,-4.8610509,637.34442)" />
    <g
       id="g6571"
       transform="matrix(0.29958285,0,0,-0.29915948,-4.8610509,637.34442)" />
    <g
       id="g6585"
       transform="matrix(0.29958285,0,0,-0.29915948,-4.8610509,637.34442)" />
    <g
       id="g6599"
       transform="matrix(0.29958285,0,0,-0.29915948,-4.8610509,637.34442)" />
    <g
       id="g6613"
       transform="matrix(0.29958285,0,0,-0.29915948,-4.8610509,637.34442)" />
    <g
       id="g6627"
       transform="matrix(0.29958285,0,0,-0.29915948,-4.8610509,637.34442)" />
    <g
       id="g6641"
       transform="matrix(0.29958285,0,0,-0.29915948,-4.8610509,637.34442)" />
    <g
       id="g6655"
       transform="matrix(0.29958285,0,0,-0.29915948,-4.8610509,637.34442)" />
    <g
       id="g6669"
       transform="matrix(0.29958285,0,0,-0.29915948,-4.8610509,637.34442)" />
    <g
       id="g6683"
       transform="matrix(0.29958285,0,0,-0.29915948,-4.8610509,637.34442)" />
    <g
       id="g6697"
       transform="matrix(0.29958285,0,0,-0.29915948,-4.8610509,637.34442)" />
    <g
       id="g6745"
       transform="matrix(0.29958285,0,0,-0.29915948,-4.8610509,637.34442)">
      <g
         id="g6747" />
      <g
         id="g6749"
         transform="matrix(0.588189,0,0,-0.588976,0,1048.989)">
        <g
           id="g6751"
           transform="matrix(0,-1,-1,0,1176,1337)" />
      </g>
    </g>
    <g
       id="g6753"
       transform="matrix(0.29958285,0,0,-0.29915948,-4.8610509,637.34442)" />
    <g
       id="g6773"
       transform="matrix(0.29958285,0,0,-0.29915948,-4.8610509,637.34442)" />
    <g
       id="g6787"
       transform="matrix(0.29958285,0,0,-0.29915948,-4.8610509,637.34442)" />
    <g
       id="g6819"
       transform="matrix(0.29958285,0,0,-0.29915948,-4.8610509,637.34442)" />
    <g
       id="g6833"
       transform="matrix(0.29958285,0,0,-0.29915948,-4.8610509,637.34442)" />
    <g
       id="g6847"
       transform="matrix(0.29958285,0,0,-0.29915948,-4.8610509,637.34442)" />
    <g
       id="g6861"
       transform="matrix(0.29958285,0,0,-0.29915948,-4.8610509,637.34442)" />
    <g
       id="g6875"
       transform="matrix(0.29958285,0,0,-0.29915948,-4.8610509,637.34442)" />
    <g
       id="g6889"
       transform="matrix(0.29958285,0,0,-0.29915948,-4.8610509,637.34442)" />
    <g
       id="g6903"
       transform="matrix(0.29958285,0,0,-0.29915948,-4.8610509,637.34442)" />
    <g
       id="g6917"
       transform="matrix(0.29958285,0,0,-0.29915948,-4.8610509,637.34442)" />
    <g
       id="g6931"
       transform="matrix(0.29958285,0,0,-0.29915948,-4.8610509,637.34442)" />
    <g
       id="g6945"
       transform="matrix(0.29958285,0,0,-0.29915948,-4.8610509,637.34442)" />
    <g
       id="g6959"
       transform="matrix(0.29958285,0,0,-0.29915948,-4.8610509,637.34442)" />
    <g
       id="g6973"
       transform="matrix(0.29958285,0,0,-0.29915948,-4.8610509,637.34442)" />
    <g
       id="g7029"
       transform="matrix(0.29958285,0,0,-0.29915948,-4.8610509,637.34442)">
      <g
         id="g7031" />
      <g
         id="g7033"
         transform="matrix(0.588189,0,0,-0.588976,0,1048.989)">
        <g
           id="g7035"
           transform="matrix(0,-1,-1,0,2120,451)" />
      </g>
    </g>
    <g
       id="g7037"
       transform="matrix(0.29958285,0,0,-0.29915948,-4.8610509,637.34442)" />
    <g
       id="g7057"
       transform="matrix(0.29958285,0,0,-0.29915948,-4.8610509,637.34442)" />
    <g
       id="g7071"
       transform="matrix(0.29958285,0,0,-0.29915948,-4.8610509,637.34442)" />
    <g
       id="g7103"
       transform="matrix(0.29958285,0,0,-0.29915948,-4.8610509,637.34442)" />
    <g
       id="g7117"
       transform="matrix(0.29958285,0,0,-0.29915948,-4.8610509,637.34442)" />
    <g
       id="g7131"
       transform="matrix(0.29958285,0,0,-0.29915948,-4.8610509,637.34442)" />
    <g
       id="g7145"
       transform="matrix(0.29958285,0,0,-0.29915948,-4.8610509,637.34442)" />
    <g
       id="g7159"
       transform="matrix(0.29958285,0,0,-0.29915948,-4.8610509,637.34442)" />
    <g
       id="g7173"
       transform="matrix(0.29958285,0,0,-0.29915948,-4.8610509,637.34442)" />
    <g
       id="g7187"
       transform="matrix(0.29958285,0,0,-0.29915948,-4.8610509,637.34442)" />
    <g
       id="g7201"
       transform="matrix(0.29958285,0,0,-0.29915948,-4.8610509,637.34442)" />
    <g
       id="g7215"
       transform="matrix(0.29958285,0,0,-0.29915948,-4.8610509,637.34442)" />
    <g
       id="g7259"
       transform="matrix(0.29958285,0,0,-0.29915948,-4.8610509,637.34442)">
      <g
         id="g7261" />
      <g
         id="g7263"
         transform="matrix(0.588189,0,0,-0.588976,0,1048.989)">
        <g
           id="g7265"
           transform="matrix(0,-1,-1,0,2120,1337)" />
      </g>
    </g>
    <g
       id="g7267"
       transform="matrix(0.29958285,0,0,-0.29915948,-4.8610509,637.34442)" />
    <g
       id="g7293"
       transform="matrix(0.29958285,0,0,-0.29915948,-4.8610509,637.34442)" />
    <g
       id="g7307"
       transform="matrix(0.29958285,0,0,-0.29915948,-4.8610509,637.34442)" />
    <g
       id="g7309"
       transform="matrix(0.29958285,0,0,-0.29915948,-4.8610509,637.34442)" />
    <g
       id="g9499"
       transform="matrix(0.65361125,0,0,-0.652755,-2058.9153,997.23194)" />
    <g
       id="g9503"
       transform="matrix(0.65361125,0,0,-0.652755,-2058.9153,997.23194)" />
    <g
       id="g9523"
       transform="matrix(0.65361125,0,0,-0.652755,-2058.9153,997.23194)" />
    <g
       id="g9537"
       transform="matrix(0.65361125,0,0,-0.652755,-2058.9153,997.23194)" />
    <g
       id="g9551"
       transform="matrix(0.65361125,0,0,-0.652755,-2058.9153,997.23194)" />
    <g
       id="g9565"
       transform="matrix(0.65361125,0,0,-0.652755,-2058.9153,997.23194)" />
    <g
       id="g9579"
       transform="matrix(0.65361125,0,0,-0.652755,-2058.9153,997.23194)" />
    <g
       id="g9593"
       transform="matrix(0.65361125,0,0,-0.652755,-2058.9153,997.23194)" />
    <g
       id="g9607"
       transform="matrix(0.65361125,0,0,-0.652755,-2058.9153,997.23194)" />
    <g
       id="g9621"
       transform="matrix(0.65361125,0,0,-0.652755,-2058.9153,997.23194)" />
    <g
       id="g9635"
       transform="matrix(0.65361125,0,0,-0.652755,-2058.9153,997.23194)" />
    <g
       id="g9703"
       transform="matrix(0.65361125,0,0,-0.652755,-2058.9153,997.23194)" />
    <g
       id="g9717"
       transform="matrix(0.65361125,0,0,-0.652755,-2058.9153,997.23194)" />
    <g
       id="g10251"
       transform="matrix(0.65361125,0,0,-0.652755,-2058.9153,997.23194)" />
    <path
       inkscape:connector-curvature="0"
       style="fill:none;stroke:#262626;stroke-width:1.64819193px;stroke-linecap:round;stroke-linejoin:round;stroke-dasharray:none;stroke-opacity:1"
       d="m 194.89069,393.62564 0,30.39234"
       id="path4127" />
    <path
       inkscape:connector-curvature="0"
       style="fill:none;stroke:#262626;stroke-width:1.64819193px;stroke-linecap:round;stroke-linejoin:round;stroke-dasharray:none;stroke-opacity:1"
       d="m 216.1194,393.62564 0,30.39234"
       id="path4129" />
    <path
       inkscape:connector-curvature="0"
       style="fill:#ffffff;fill-opacity:1;fill-rule:evenodd;stroke:none"
       d="m 197.98929,389.73595 0,37.71023 15.03151,0 0,-37.71023 -15.03151,0 z"
       id="path4131" />
    <path
       inkscape:connector-curvature="0"
       style="fill:none;stroke:#262626;stroke-width:1.12077057px;stroke-linecap:round;stroke-linejoin:round;stroke-dasharray:none;stroke-opacity:1"
       d="m 197.98929,389.73595 15.03151,0 0,37.71023 -15.03151,0 z"
       id="path4133" />
    <path
       inkscape:connector-curvature="0"
       style="fill:none;stroke:#262626;stroke-width:2.17561316px;stroke-linecap:round;stroke-linejoin:round;stroke-dasharray:none;stroke-opacity:1"
       d="m 237.77425,421.70724 12.46034,0"
       id="path4137" />
    <path
       inkscape:connector-curvature="0"
       style="fill:none;stroke:#262626;stroke-width:0.70866144;stroke-linecap:round;stroke-linejoin:round;stroke-miterlimit:4;stroke-dasharray:none;stroke-opacity:1"
       d="m 179.27068,451.15892 -111.479596,0.26346 0,-43.20595 c 0,0 125.888346,0.3042 126.649756,0.38262"
       id="path4141"
       sodipodi:nodetypes="cccc" />
    <path
       inkscape:connector-curvature="0"
       style="fill:#ffffff;fill-opacity:1;fill-rule:evenodd;stroke:none"
       d="m 80.532085,390.85655 42.127785,17.40473 -42.127785,17.3388 z"
       id="path4143" />
    <path
       inkscape:connector-curvature="0"
       style="fill:none;stroke:#262626;stroke-width:1.12077057px;stroke-linecap:round;stroke-linejoin:round;stroke-dasharray:none;stroke-opacity:1"
       d="m 80.532085,390.85655 42.127785,17.40473 -42.127785,17.3388 z"
       id="path4145" />
    <text
       xml:space="preserve"
       x="81.718781"
       y="411.55762"
       style="font-style:normal;font-weight:normal;font-size:8.76838112px;font-family:Arial;text-align:start;text-anchor:start;fill:#000000"
       id="text4147">+23 dB</text>
    <path
       inkscape:connector-curvature="0"
       style="fill:#ffffff;fill-opacity:1;fill-rule:evenodd;stroke:none"
       d="m 125.56069,390.85655 42.12779,17.40473 -42.12779,17.3388 z"
       id="path4149" />
    <path
       inkscape:connector-curvature="0"
       style="fill:none;stroke:#262626;stroke-width:1.12077057px;stroke-linecap:round;stroke-linejoin:round;stroke-dasharray:none;stroke-opacity:1"
       d="m 125.56069,390.85655 42.12779,17.40473 -42.12779,17.3388 z"
       id="path4151" />
    <text
       xml:space="preserve"
       x="131.82382"
       y="411.55762"
       style="font-style:normal;font-weight:normal;font-size:8.76838112px;font-family:Arial;text-align:start;text-anchor:start;fill:#000000"
       id="text4153">BUF</text>
    <path
       inkscape:connector-curvature="0"
       style="fill:#ffffff;fill-opacity:1;fill-rule:evenodd;stroke:none"
       d="m 94.574681,440.30179 0,31.44718 62.829079,0 0,-31.44718 -62.829079,0 z"
       id="path4155" />
    <path
       inkscape:connector-curvature="0"
       style="fill:none;stroke:#262626;stroke-width:1.12077057px;stroke-linecap:round;stroke-linejoin:round;stroke-dasharray:none;stroke-opacity:1"
       d="m 94.574681,440.30179 62.829079,0 0,31.44718 -62.829079,0 z"
       id="path4157" />
    <text
       xml:space="preserve"
       x="110.06767"
       y="466.07922"
       style="font-style:normal;font-weight:normal;font-size:11.00992298px;font-family:Arial;text-align:start;text-anchor:start;fill:#000000"
       id="text4159">lock</text>
    <text
       xml:space="preserve"
       x="129.71413"
       y="466.07922"
       style="font-style:normal;font-weight:normal;font-size:11.00992298px;font-family:Arial;text-align:start;text-anchor:start;fill:#000000"
       id="text4161">-</text>
    <text
       xml:space="preserve"
       x="133.40608"
       y="466.07922"
       style="font-style:normal;font-weight:normal;font-size:11.00992298px;font-family:Arial;text-align:start;text-anchor:start;fill:#000000"
       id="text4163">in</text>
    <text
       xml:space="preserve"
       x="97.651146"
       y="450.91602"
       style="font-style:normal;font-weight:normal;font-size:8.76838112px;font-family:Arial;text-align:start;text-anchor:start;fill:#000000"
       id="text4165">ref </text>
    <text
       xml:space="preserve"
       x="147.34032"
       y="450.91602"
       style="font-style:normal;font-weight:normal;font-size:8.76838112px;font-family:Arial;text-align:start;text-anchor:start;fill:#000000"
       id="text4167">in</text>
    <path
       inkscape:connector-curvature="0"
       style="fill:none;stroke:#262626;stroke-width:0.70866144;stroke-linecap:round;stroke-linejoin:round;stroke-miterlimit:4;stroke-dasharray:none;stroke-opacity:1"
       d="m 176.38186,408.19535 0,-0.7252 0.066,-0.72519 0.0659,-0.65927 0.0659,-0.65927 0.13187,-0.65927 0.13184,-0.52742 0.13186,-0.59334 0.19778,-0.4615 0.19779,-0.46148 0.19778,-0.39556 0.26371,-0.39557 0.26371,-0.2637 0.19778,-0.26371 0.13185,-0.0659 0.13186,-0.13185 0.13187,0 0.19777,-0.066 0.13186,-0.066 0.13185,0 0.13185,0 0.13186,0.066 0.13186,0.066 0.13185,0 0.13186,0.13185 0.13186,0.0659 0.2637,0.26371 0.26371,0.2637 0.26372,0.39557 0.19778,0.39556 0.19778,0.46148 0.19779,0.4615 0.13185,0.59334 0.13185,0.52742 0.13186,0.65927 0.066,0.65927 0.0659,0.65927 0.066,0.72519 0,0.7252 0,0.7252 -0.066,0.65927 -0.0659,0.65927 -0.066,0.65927 -0.13186,0.65927 -0.13185,0.59335 -0.13185,0.5274 -0.19779,0.46149 -0.19778,0.46149 -0.19778,0.46149 -0.26372,0.32963 -0.26371,0.26371 -0.2637,0.26371 -0.13186,0.13186 -0.13186,0.0659 -0.13185,0.0659 -0.13186,0 -0.13186,0.066 -0.13185,0 -0.13185,0 -0.13186,-0.066 -0.19777,0 -0.13187,-0.0659 -0.13186,-0.0659 -0.13185,-0.13186 -0.19778,-0.26371 -0.26371,-0.26371 -0.26371,-0.32963 -0.19778,-0.46149 -0.19779,-0.46149 -0.19778,-0.46149 -0.13186,-0.5274 -0.13184,-0.59335 -0.13187,-0.65927 -0.0659,-0.65927 -0.0659,-0.65927 -0.066,-0.65927 0,-0.7252"
       id="path4169" />
    <path
       inkscape:connector-curvature="0"
       style="fill:none;stroke:#262626;stroke-width:0.70866144;stroke-linecap:round;stroke-linejoin:round;stroke-miterlimit:4;stroke-dasharray:none;stroke-opacity:1"
       d="m 179.22582,415.42873 0,35.68508"
       id="path4173"
       sodipodi:nodetypes="cc" />
    <path
       inkscape:connector-curvature="0"
       style="fill:#262626;fill-opacity:1;fill-rule:nonzero;stroke:#262626;stroke-width:0.06592768px;stroke-linecap:round;stroke-linejoin:round;stroke-dasharray:none;stroke-opacity:1"
       d="m 87.388561,448.67453 -5.471997,2.76893 5.471997,2.76893 z"
       id="path4175"
       sodipodi:nodetypes="cccc" />
    <path
       inkscape:connector-curvature="0"
       style="fill:#262626;fill-opacity:1;fill-rule:nonzero;stroke:#262626;stroke-width:0.06592768px;stroke-linecap:round;stroke-linejoin:round;stroke-dasharray:none;stroke-opacity:1"
       d="m 169.46853,448.41082 -5.472,2.76893 5.472,2.70301 z"
       id="path4177"
       sodipodi:nodetypes="cccc" />
    <g
       id="g5462"
       transform="matrix(0.28566635,0,0,-0.28526265,0.67261049,626.5733)" />
    <g
       id="g5466"
       transform="matrix(0.28566635,0,0,-0.28526265,0.67261049,626.5733)" />
    <g
       id="g5564"
       transform="matrix(0.28566635,0,0,-0.28526265,0.67261049,626.5733)" />
    <g
       id="g5662"
       transform="matrix(0.28566635,0,0,-0.28526265,0.67261049,626.5733)" />
    <g
       id="g7314"
       transform="matrix(0.28566635,0,0,-0.28526265,0.67261049,626.5733)" />
    <g
       id="g8970"
       transform="matrix(0.28566635,0,0,-0.28526265,0.67261049,626.5733)" />
    <g
       id="g8990"
       transform="matrix(0.28566635,0,0,-0.28526265,0.67261049,626.5733)" />
    <g
       id="g9004"
       transform="matrix(0.28566635,0,0,-0.28526265,0.67261049,626.5733)" />
    <g
       id="g9018"
       transform="matrix(0.28566635,0,0,-0.28526265,0.67261049,626.5733)" />
    <g
       id="g9032"
       transform="matrix(0.28566635,0,0,-0.28526265,0.67261049,626.5733)" />
    <g
       id="g9046"
       transform="matrix(0.28566635,0,0,-0.28526265,0.67261049,626.5733)" />
    <g
       id="g9060"
       transform="matrix(0.28566635,0,0,-0.28526265,0.67261049,626.5733)" />
    <g
       id="g9074"
       transform="matrix(0.28566635,0,0,-0.28526265,0.67261049,626.5733)" />
    <g
       id="g9088"
       transform="matrix(0.28566635,0,0,-0.28526265,0.67261049,626.5733)" />
    <g
       id="g9102"
       transform="matrix(0.28566635,0,0,-0.28526265,0.67261049,626.5733)" />
    <g
       id="g9116"
       transform="matrix(0.28566635,0,0,-0.28526265,0.67261049,626.5733)" />
    <g
       id="g9164"
       transform="matrix(0.28566635,0,0,-0.28526265,0.67261049,626.5733)">
      <g
         id="g9166" />
      <g
         id="g9168"
         transform="matrix(0.588189,0,0,-0.588976,0,1048.989)">
        <g
           id="g9170"
           transform="matrix(0,-1,-1,0,1176,1337)" />
      </g>
    </g>
    <g
       id="g9172"
       transform="matrix(0.28566635,0,0,-0.28526265,0.67261049,626.5733)" />
    <g
       id="g9192"
       transform="matrix(0.28566635,0,0,-0.28526265,0.67261049,626.5733)" />
    <g
       id="g9206"
       transform="matrix(0.28566635,0,0,-0.28526265,0.67261049,626.5733)" />
    <g
       id="g9238"
       transform="matrix(0.28566635,0,0,-0.28526265,0.67261049,626.5733)" />
    <g
       id="g9252"
       transform="matrix(0.28566635,0,0,-0.28526265,0.67261049,626.5733)" />
    <g
       id="g9266"
       transform="matrix(0.28566635,0,0,-0.28526265,0.67261049,626.5733)" />
    <g
       id="g9280"
       transform="matrix(0.28566635,0,0,-0.28526265,0.67261049,626.5733)" />
    <g
       id="g9294"
       transform="matrix(0.28566635,0,0,-0.28526265,0.67261049,626.5733)" />
    <g
       id="g9308"
       transform="matrix(0.28566635,0,0,-0.28526265,0.67261049,626.5733)" />
    <g
       id="g9322"
       transform="matrix(0.28566635,0,0,-0.28526265,0.67261049,626.5733)" />
    <g
       id="g9336"
       transform="matrix(0.28566635,0,0,-0.28526265,0.67261049,626.5733)" />
    <g
       id="g9350"
       transform="matrix(0.28566635,0,0,-0.28526265,0.67261049,626.5733)" />
    <g
       id="g9394"
       transform="matrix(0.28566635,0,0,-0.28526265,0.67261049,626.5733)">
      <g
         id="g9396" />
      <g
         id="g9398"
         transform="matrix(0.588189,0,0,-0.588976,0,1048.989)">
        <g
           id="g9400"
           transform="matrix(0,-1,-1,0,2120,451)" />
      </g>
    </g>
    <g
       id="g9402"
       transform="matrix(0.28566635,0,0,-0.28526265,0.67261049,626.5733)" />
    <g
       id="g9422"
       transform="matrix(0.28566635,0,0,-0.28526265,0.67261049,626.5733)" />
    <g
       id="g9436"
       transform="matrix(0.28566635,0,0,-0.28526265,0.67261049,626.5733)" />
    <g
       id="g9468"
       transform="matrix(0.28566635,0,0,-0.28526265,0.67261049,626.5733)" />
    <g
       id="g9482"
       transform="matrix(0.28566635,0,0,-0.28526265,0.67261049,626.5733)" />
    <g
       id="g9496"
       transform="matrix(0.28566635,0,0,-0.28526265,0.67261049,626.5733)" />
    <g
       id="g9510"
       transform="matrix(0.28566635,0,0,-0.28526265,0.67261049,626.5733)" />
    <g
       id="g9524"
       transform="matrix(0.28566635,0,0,-0.28526265,0.67261049,626.5733)" />
    <g
       id="g9538"
       transform="matrix(0.28566635,0,0,-0.28526265,0.67261049,626.5733)" />
    <g
       id="g9552"
       transform="matrix(0.28566635,0,0,-0.28526265,0.67261049,626.5733)" />
    <g
       id="g9566"
       transform="matrix(0.28566635,0,0,-0.28526265,0.67261049,626.5733)" />
    <g
       id="g9580"
       transform="matrix(0.28566635,0,0,-0.28526265,0.67261049,626.5733)" />
    <g
       id="g9624"
       transform="matrix(0.28566635,0,0,-0.28526265,0.67261049,626.5733)">
      <g
         id="g9626" />
      <g
         id="g9628"
         transform="matrix(0.588189,0,0,-0.588976,0,1048.989)">
        <g
           id="g9630"
           transform="matrix(0,-1,-1,0,2120,1337)" />
      </g>
    </g>
    <g
       id="g9632"
       transform="matrix(0.28566635,0,0,-0.28526265,0.67261049,626.5733)" />
    <g
       id="g9658"
       transform="matrix(0.28566635,0,0,-0.28526265,0.67261049,626.5733)" />
    <g
       id="g9672"
       transform="matrix(0.28566635,0,0,-0.28526265,0.67261049,626.5733)" />
    <g
       id="g9674"
       transform="matrix(0.28566635,0,0,-0.28526265,0.67261049,626.5733)" />
    <path
       inkscape:connector-curvature="0"
       style="fill:none;stroke:#262626;stroke-width:2;stroke-linecap:round;stroke-linejoin:round;stroke-miterlimit:4;stroke-dasharray:none;stroke-opacity:1"
       d="m 239.91969,425.34504 8.16946,0"
       id="path4137-6" />
    <path
       inkscape:connector-curvature="0"
       style="fill:none;stroke:#262626;stroke-width:2;stroke-linecap:round;stroke-linejoin:round;stroke-miterlimit:4;stroke-dasharray:none;stroke-opacity:1"
       d="m 242.92332,428.98284 2.1622,0"
       id="path4137-5" />
    <path
       style="fill:none;fill-rule:evenodd;stroke:#262626;stroke-width:1px;stroke-linecap:butt;stroke-linejoin:miter;stroke-opacity:1"
       d="m 216.20237,408.98365 27.65293,0 0,12.81631"
       id="path6633"
       inkscape:connector-curvature="0" />
  </g>
</svg>
